<svg width="355" height="97" viewBox="0 0 355 97" fill="none" xmlns="http://www.w3.org/2000/svg">
<g filter="url(#filter0_d_877_1156)">
<rect x="4" width="346.5" height="89" rx="44.5" fill="#4BFFDF" fill-opacity="0.25" shape-rendering="crispEdges"/>
<rect x="4.5" y="0.5" width="345.5" height="88" rx="44" stroke="#2CA1A9" shape-rendering="crispEdges"/>
<g filter="url(#filter1_i_877_1156)">
<path d="M96.25 63.5238H94V56.8095C94 56.2159 93.7629 55.6467 93.341 55.227C92.919 54.8072 92.3467 54.5714 91.75 54.5714H73.75C73.1533 54.5714 72.581 54.8072 72.159 55.227C71.7371 55.6467 71.5 56.2159 71.5 56.8095V63.5238H40V25.4762H89.5V47.8571C89.5 48.4507 89.7371 49.02 90.159 49.4397C90.581 49.8594 91.1533 50.0952 91.75 50.0952C92.3467 50.0952 92.919 49.8594 93.341 49.4397C93.7629 49.02 94 48.4507 94 47.8571V25.4762C94 24.289 93.5259 23.1505 92.682 22.311C91.8381 21.4716 90.6935 21 89.5 21H40C38.8065 21 37.6619 21.4716 36.818 22.311C35.9741 23.1505 35.5 24.289 35.5 25.4762V63.5238H33.25C32.6533 63.5238 32.081 63.7596 31.659 64.1793C31.2371 64.5991 31 65.1683 31 65.7619C31 66.3555 31.2371 66.9248 31.659 67.3445C32.081 67.7642 32.6533 68 33.25 68H96.25C96.8467 68 97.419 67.7642 97.841 67.3445C98.2629 66.9248 98.5 66.3555 98.5 65.7619C98.5 65.1683 98.2629 64.5991 97.841 64.1793C97.419 63.7596 96.8467 63.5238 96.25 63.5238ZM76 59.0476H89.5V63.5238H76V59.0476Z" fill="#2CA1A9"/>
<path d="M83.806 52.3062C81.7266 50.3581 81.1269 47.4371 82.1645 44.2811L82.7578 42.4764C82.8688 42.1419 82.872 41.7807 82.767 41.4399C82.6621 41.099 82.4538 40.7945 82.1694 40.566L79.7949 38.6537C79.6084 38.5024 79.4898 38.2874 79.4649 38.0554C79.44 37.8234 79.5108 37.5933 79.662 37.4152L83.8037 32.6354C84.0807 32.3234 84.2885 31.9592 84.4145 31.5646C84.5405 31.1701 84.5822 30.7533 84.5371 30.3393C84.492 29.9252 84.361 29.5224 84.152 29.155C83.9429 28.7876 83.6601 28.463 83.3206 28.2009C82.6579 27.694 81.8223 27.4524 80.9912 27.5274C80.1601 27.6025 79.3992 27.9883 78.87 28.6028C78.8682 28.6069 78.8668 28.6111 78.8659 28.6154L74.7493 33.4288C74.5966 33.6067 74.3757 33.7173 74.135 33.7363C73.8944 33.7554 73.6537 33.6813 73.4658 33.5303L71.0526 31.5488C70.7741 31.321 70.4334 31.1771 70.074 31.1355C69.7146 31.094 69.3529 31.1567 69.0351 31.3157C65.9981 32.8306 63.9663 35.0945 62.9964 38.0448C61.9978 41.062 62.2609 44.3613 63.7303 47.2463C63.7852 47.355 63.8622 47.4522 63.9566 47.532C64.051 47.6118 64.1608 47.6725 64.2794 47.7105L82.9033 53.7685C83.1003 53.8324 83.3124 53.8304 83.5052 53.7629C83.6979 53.6953 83.8598 53.5662 83.9645 53.3966C84.0692 53.2269 84.1106 53.0268 84.0818 52.8288C84.053 52.6307 83.9558 52.4465 83.806 52.3062ZM69.8922 32.8892L72.306 34.8651C72.5851 35.0916 72.9067 35.2636 73.2521 35.3712C73.5976 35.4788 73.9601 35.5199 74.3191 35.4922C74.678 35.4645 75.0261 35.3685 75.3436 35.2097C75.6611 35.0509 75.9416 34.8324 76.1691 34.5669L80.2759 29.7758C80.7645 29.2283 81.6256 29.1431 82.1968 29.5913C82.3429 29.7041 82.4645 29.8437 82.5543 30.0018C82.644 30.16 82.7001 30.3334 82.719 30.5115C82.738 30.6897 82.7194 30.8689 82.6645 31.0384C82.6096 31.2079 82.5194 31.3641 82.3995 31.4977L78.2494 36.2736C77.7913 36.8079 77.5755 37.5006 77.6492 38.1995C77.723 38.8984 78.0804 39.5465 78.643 40.0015L81.0152 41.9096L80.4222 43.7132C80.4109 43.7476 80.3996 43.7821 80.3879 43.8176L68.1831 33.9182C68.7217 33.5301 69.2933 33.186 69.8922 32.8892ZM70.7252 47.9575C69.8203 46.3424 69.4012 44.5228 69.5163 42.7089C69.5253 42.4777 69.4396 42.2503 69.2778 42.076C69.116 41.9016 68.891 41.7943 68.6515 41.7771C68.412 41.7599 68.1771 41.8342 67.9975 41.984C67.818 42.1339 67.7082 42.3472 67.6919 42.5779C67.5989 44.1403 67.8353 45.7117 68.3869 47.1969L65.2034 46.1614C64.0885 43.7666 63.923 41.0769 64.7389 38.6116C65.158 37.3011 65.8706 36.1011 66.8268 35.0955L79.9424 45.7339C79.6511 47.72 79.943 49.6045 80.7759 51.2257L70.7252 47.9575Z" fill="#2CA1A9"/>
<path d="M51.8794 40.6782H48.0752V38.2788H51.8794C52.4673 38.2788 52.9458 38.1831 53.3149 37.9917C53.6841 37.7935 53.9541 37.52 54.125 37.1714C54.2959 36.8228 54.3813 36.4297 54.3813 35.9922C54.3813 35.5479 54.2959 35.1343 54.125 34.7515C53.9541 34.3687 53.6841 34.061 53.3149 33.8286C52.9458 33.5962 52.4673 33.48 51.8794 33.48H49.1416V46H46.0654V31.0703H51.8794C53.0483 31.0703 54.0498 31.2822 54.8838 31.7061C55.7246 32.123 56.3672 32.7007 56.8115 33.439C57.2559 34.1772 57.478 35.0215 57.478 35.9717C57.478 36.9355 57.2559 37.7695 56.8115 38.4736C56.3672 39.1777 55.7246 39.7212 54.8838 40.104C54.0498 40.4868 53.0483 40.6782 51.8794 40.6782Z" fill="#2CA1A9"/>
<path d="M60.75 55.6006V58H53.2339V55.6006H60.75ZM54.2285 43.0703V58H51.1523V43.0703H54.2285Z" fill="#2CA1A9"/>
</g>
<g filter="url(#filter2_i_877_1156)">
<path d="M131.812 46.5781H125.734V44.125H131.812C132.99 44.125 133.943 43.9375 134.672 43.5625C135.401 43.1875 135.932 42.6667 136.266 42C136.609 41.3333 136.781 40.5729 136.781 39.7188C136.781 38.9375 136.609 38.2031 136.266 37.5156C135.932 36.8281 135.401 36.276 134.672 35.8594C133.943 35.4323 132.99 35.2188 131.812 35.2188H126.438V55.5H123.422V32.75H131.812C133.531 32.75 134.984 33.0469 136.172 33.6406C137.359 34.2344 138.26 35.0573 138.875 36.1094C139.49 37.151 139.797 38.3438 139.797 39.6875C139.797 41.1458 139.49 42.3906 138.875 43.4219C138.26 44.4531 137.359 45.2396 136.172 45.7812C134.984 46.3125 133.531 46.5781 131.812 46.5781ZM142.188 47.2344V46.875C142.188 45.6562 142.365 44.526 142.719 43.4844C143.073 42.4323 143.583 41.5208 144.25 40.75C144.917 39.9688 145.724 39.3646 146.672 38.9375C147.62 38.5 148.682 38.2812 149.859 38.2812C151.047 38.2812 152.115 38.5 153.062 38.9375C154.021 39.3646 154.833 39.9688 155.5 40.75C156.177 41.5208 156.693 42.4323 157.047 43.4844C157.401 44.526 157.578 45.6562 157.578 46.875V47.2344C157.578 48.4531 157.401 49.5833 157.047 50.625C156.693 51.6667 156.177 52.5781 155.5 53.3594C154.833 54.1302 154.026 54.7344 153.078 55.1719C152.141 55.599 151.078 55.8125 149.891 55.8125C148.703 55.8125 147.635 55.599 146.688 55.1719C145.74 54.7344 144.927 54.1302 144.25 53.3594C143.583 52.5781 143.073 51.6667 142.719 50.625C142.365 49.5833 142.188 48.4531 142.188 47.2344ZM145.078 46.875V47.2344C145.078 48.0781 145.177 48.875 145.375 49.625C145.573 50.3646 145.87 51.0208 146.266 51.5938C146.672 52.1667 147.177 52.6198 147.781 52.9531C148.385 53.276 149.089 53.4375 149.891 53.4375C150.682 53.4375 151.375 53.276 151.969 52.9531C152.573 52.6198 153.073 52.1667 153.469 51.5938C153.865 51.0208 154.161 50.3646 154.359 49.625C154.568 48.875 154.672 48.0781 154.672 47.2344V46.875C154.672 46.0417 154.568 45.2552 154.359 44.5156C154.161 43.7656 153.859 43.1042 153.453 42.5312C153.057 41.9479 152.557 41.4896 151.953 41.1562C151.359 40.8229 150.661 40.6562 149.859 40.6562C149.068 40.6562 148.37 40.8229 147.766 41.1562C147.172 41.4896 146.672 41.9479 146.266 42.5312C145.87 43.1042 145.573 43.7656 145.375 44.5156C145.177 45.2552 145.078 46.0417 145.078 46.875ZM164.094 41.25V55.5H161.203V38.5938H164.016L164.094 41.25ZM169.375 38.5L169.359 41.1875C169.12 41.1354 168.891 41.1042 168.672 41.0938C168.464 41.0729 168.224 41.0625 167.953 41.0625C167.286 41.0625 166.698 41.1667 166.188 41.375C165.677 41.5833 165.245 41.875 164.891 42.25C164.536 42.625 164.255 43.0729 164.047 43.5938C163.849 44.1042 163.719 44.6667 163.656 45.2812L162.844 45.75C162.844 44.7292 162.943 43.7708 163.141 42.875C163.349 41.9792 163.667 41.1875 164.094 40.5C164.521 39.8021 165.062 39.2604 165.719 38.875C166.385 38.4792 167.177 38.2812 168.094 38.2812C168.302 38.2812 168.542 38.3073 168.812 38.3594C169.083 38.401 169.271 38.4479 169.375 38.5ZM179.906 38.5938V40.8125H170.766V38.5938H179.906ZM173.859 34.4844H176.75V51.3125C176.75 51.8854 176.839 52.3177 177.016 52.6094C177.193 52.901 177.422 53.0938 177.703 53.1875C177.984 53.2812 178.286 53.3281 178.609 53.3281C178.849 53.3281 179.099 53.3073 179.359 53.2656C179.63 53.2135 179.833 53.1719 179.969 53.1406L179.984 55.5C179.755 55.5729 179.453 55.6406 179.078 55.7031C178.714 55.776 178.271 55.8125 177.75 55.8125C177.042 55.8125 176.391 55.6719 175.797 55.3906C175.203 55.1094 174.729 54.6406 174.375 53.9844C174.031 53.3177 173.859 52.4219 173.859 51.2969V34.4844ZM187.609 55.5H184.719V36.8125C184.719 35.5938 184.938 34.5677 185.375 33.7344C185.823 32.8906 186.464 32.2552 187.297 31.8281C188.13 31.3906 189.12 31.1719 190.266 31.1719C190.599 31.1719 190.932 31.1927 191.266 31.2344C191.609 31.276 191.943 31.3385 192.266 31.4219L192.109 33.7812C191.891 33.7292 191.641 33.6927 191.359 33.6719C191.089 33.651 190.818 33.6406 190.547 33.6406C189.932 33.6406 189.401 33.7656 188.953 34.0156C188.516 34.2552 188.182 34.6094 187.953 35.0781C187.724 35.5469 187.609 36.125 187.609 36.8125V55.5ZM191.203 38.5938V40.8125H182.047V38.5938H191.203ZM193.656 47.2344V46.875C193.656 45.6562 193.833 44.526 194.188 43.4844C194.542 42.4323 195.052 41.5208 195.719 40.75C196.385 39.9688 197.193 39.3646 198.141 38.9375C199.089 38.5 200.151 38.2812 201.328 38.2812C202.516 38.2812 203.583 38.5 204.531 38.9375C205.49 39.3646 206.302 39.9688 206.969 40.75C207.646 41.5208 208.161 42.4323 208.516 43.4844C208.87 44.526 209.047 45.6562 209.047 46.875V47.2344C209.047 48.4531 208.87 49.5833 208.516 50.625C208.161 51.6667 207.646 52.5781 206.969 53.3594C206.302 54.1302 205.495 54.7344 204.547 55.1719C203.609 55.599 202.547 55.8125 201.359 55.8125C200.172 55.8125 199.104 55.599 198.156 55.1719C197.208 54.7344 196.396 54.1302 195.719 53.3594C195.052 52.5781 194.542 51.6667 194.188 50.625C193.833 49.5833 193.656 48.4531 193.656 47.2344ZM196.547 46.875V47.2344C196.547 48.0781 196.646 48.875 196.844 49.625C197.042 50.3646 197.339 51.0208 197.734 51.5938C198.141 52.1667 198.646 52.6198 199.25 52.9531C199.854 53.276 200.557 53.4375 201.359 53.4375C202.151 53.4375 202.844 53.276 203.438 52.9531C204.042 52.6198 204.542 52.1667 204.938 51.5938C205.333 51.0208 205.63 50.3646 205.828 49.625C206.036 48.875 206.141 48.0781 206.141 47.2344V46.875C206.141 46.0417 206.036 45.2552 205.828 44.5156C205.63 43.7656 205.328 43.1042 204.922 42.5312C204.526 41.9479 204.026 41.4896 203.422 41.1562C202.828 40.8229 202.13 40.6562 201.328 40.6562C200.536 40.6562 199.839 40.8229 199.234 41.1562C198.641 41.4896 198.141 41.9479 197.734 42.5312C197.339 43.1042 197.042 43.7656 196.844 44.5156C196.646 45.2552 196.547 46.0417 196.547 46.875ZM215.812 31.5V55.5H212.906V31.5H215.812ZM223.594 38.5938V55.5H220.688V38.5938H223.594ZM220.469 34.1094C220.469 33.6406 220.609 33.2448 220.891 32.9219C221.182 32.599 221.609 32.4375 222.172 32.4375C222.724 32.4375 223.146 32.599 223.438 32.9219C223.74 33.2448 223.891 33.6406 223.891 34.1094C223.891 34.5573 223.74 34.9427 223.438 35.2656C223.146 35.5781 222.724 35.7344 222.172 35.7344C221.609 35.7344 221.182 35.5781 220.891 35.2656C220.609 34.9427 220.469 34.5573 220.469 34.1094ZM227.469 47.2344V46.875C227.469 45.6562 227.646 44.526 228 43.4844C228.354 42.4323 228.865 41.5208 229.531 40.75C230.198 39.9688 231.005 39.3646 231.953 38.9375C232.901 38.5 233.964 38.2812 235.141 38.2812C236.328 38.2812 237.396 38.5 238.344 38.9375C239.302 39.3646 240.115 39.9688 240.781 40.75C241.458 41.5208 241.974 42.4323 242.328 43.4844C242.682 44.526 242.859 45.6562 242.859 46.875V47.2344C242.859 48.4531 242.682 49.5833 242.328 50.625C241.974 51.6667 241.458 52.5781 240.781 53.3594C240.115 54.1302 239.307 54.7344 238.359 55.1719C237.422 55.599 236.359 55.8125 235.172 55.8125C233.984 55.8125 232.917 55.599 231.969 55.1719C231.021 54.7344 230.208 54.1302 229.531 53.3594C228.865 52.5781 228.354 51.6667 228 50.625C227.646 49.5833 227.469 48.4531 227.469 47.2344ZM230.359 46.875V47.2344C230.359 48.0781 230.458 48.875 230.656 49.625C230.854 50.3646 231.151 51.0208 231.547 51.5938C231.953 52.1667 232.458 52.6198 233.062 52.9531C233.667 53.276 234.37 53.4375 235.172 53.4375C235.964 53.4375 236.656 53.276 237.25 52.9531C237.854 52.6198 238.354 52.1667 238.75 51.5938C239.146 51.0208 239.443 50.3646 239.641 49.625C239.849 48.875 239.953 48.0781 239.953 47.2344V46.875C239.953 46.0417 239.849 45.2552 239.641 44.5156C239.443 43.7656 239.141 43.1042 238.734 42.5312C238.339 41.9479 237.839 41.4896 237.234 41.1562C236.641 40.8229 235.943 40.6562 235.141 40.6562C234.349 40.6562 233.651 40.8229 233.047 41.1562C232.453 41.4896 231.953 41.9479 231.547 42.5312C231.151 43.1042 230.854 43.7656 230.656 44.5156C230.458 45.2552 230.359 46.0417 230.359 46.875ZM249.625 31.5V55.5H246.719V31.5H249.625ZM264.234 52.6094V43.9062C264.234 43.2396 264.099 42.6615 263.828 42.1719C263.568 41.6719 263.172 41.2865 262.641 41.0156C262.109 40.7448 261.453 40.6094 260.672 40.6094C259.943 40.6094 259.302 40.7344 258.75 40.9844C258.208 41.2344 257.781 41.5625 257.469 41.9688C257.167 42.375 257.016 42.8125 257.016 43.2812H254.125C254.125 42.6771 254.281 42.0781 254.594 41.4844C254.906 40.8906 255.354 40.3542 255.938 39.875C256.531 39.3854 257.24 39 258.062 38.7188C258.896 38.4271 259.823 38.2812 260.844 38.2812C262.073 38.2812 263.156 38.4896 264.094 38.9062C265.042 39.3229 265.781 39.9531 266.312 40.7969C266.854 41.6302 267.125 42.6771 267.125 43.9375V51.8125C267.125 52.375 267.172 52.974 267.266 53.6094C267.37 54.2448 267.521 54.7917 267.719 55.25V55.5H264.703C264.557 55.1667 264.443 54.724 264.359 54.1719C264.276 53.6094 264.234 53.0885 264.234 52.6094ZM264.734 45.25L264.766 47.2812H261.844C261.021 47.2812 260.286 47.349 259.641 47.4844C258.995 47.6094 258.453 47.8021 258.016 48.0625C257.578 48.3229 257.245 48.651 257.016 49.0469C256.786 49.4323 256.672 49.8854 256.672 50.4062C256.672 50.9375 256.792 51.4219 257.031 51.8594C257.271 52.2969 257.63 52.6458 258.109 52.9062C258.599 53.1562 259.198 53.2812 259.906 53.2812C260.792 53.2812 261.573 53.0938 262.25 52.7188C262.927 52.3438 263.464 51.8854 263.859 51.3438C264.266 50.8021 264.484 50.276 264.516 49.7656L265.75 51.1562C265.677 51.5938 265.479 52.0781 265.156 52.6094C264.833 53.1406 264.401 53.651 263.859 54.1406C263.328 54.6198 262.693 55.0208 261.953 55.3438C261.224 55.6562 260.401 55.8125 259.484 55.8125C258.339 55.8125 257.333 55.5885 256.469 55.1406C255.615 54.6927 254.948 54.0938 254.469 53.3438C254 52.5833 253.766 51.7344 253.766 50.7969C253.766 49.8906 253.943 49.0938 254.297 48.4062C254.651 47.7083 255.161 47.1302 255.828 46.6719C256.495 46.2031 257.297 45.849 258.234 45.6094C259.172 45.3698 260.219 45.25 261.375 45.25H264.734ZM274.562 42.2031V55.5H271.672V38.5938H274.406L274.562 42.2031ZM273.875 46.4062L272.672 46.3594C272.682 45.2031 272.854 44.1354 273.188 43.1562C273.521 42.1667 273.99 41.3073 274.594 40.5781C275.198 39.849 275.917 39.2865 276.75 38.8906C277.594 38.4844 278.526 38.2812 279.547 38.2812C280.38 38.2812 281.13 38.3958 281.797 38.625C282.464 38.8438 283.031 39.1979 283.5 39.6875C283.979 40.1771 284.344 40.8125 284.594 41.5938C284.844 42.3646 284.969 43.3073 284.969 44.4219V55.5H282.062V44.3906C282.062 43.5052 281.932 42.7969 281.672 42.2656C281.411 41.724 281.031 41.3333 280.531 41.0938C280.031 40.8438 279.417 40.7188 278.688 40.7188C277.969 40.7188 277.312 40.8698 276.719 41.1719C276.135 41.474 275.63 41.8906 275.203 42.4219C274.786 42.9531 274.458 43.5625 274.219 44.25C273.99 44.9271 273.875 45.6458 273.875 46.4062ZM300.016 52.2188V31.5H302.922V55.5H300.266L300.016 52.2188ZM288.641 47.2344V46.9062C288.641 45.6146 288.797 44.4427 289.109 43.3906C289.432 42.3281 289.885 41.4167 290.469 40.6562C291.062 39.8958 291.766 39.3125 292.578 38.9062C293.401 38.4896 294.318 38.2812 295.328 38.2812C296.391 38.2812 297.318 38.4688 298.109 38.8438C298.911 39.2083 299.589 39.7448 300.141 40.4531C300.703 41.151 301.146 41.9948 301.469 42.9844C301.792 43.974 302.016 45.0938 302.141 46.3438V47.7812C302.026 49.0208 301.802 50.1354 301.469 51.125C301.146 52.1146 300.703 52.9583 300.141 53.6562C299.589 54.3542 298.911 54.8906 298.109 55.2656C297.307 55.6302 296.37 55.8125 295.297 55.8125C294.307 55.8125 293.401 55.599 292.578 55.1719C291.766 54.7448 291.062 54.1458 290.469 53.375C289.885 52.6042 289.432 51.6979 289.109 50.6562C288.797 49.6042 288.641 48.4635 288.641 47.2344ZM291.547 46.9062V47.2344C291.547 48.0781 291.63 48.8698 291.797 49.6094C291.974 50.349 292.245 51 292.609 51.5625C292.974 52.125 293.438 52.5677 294 52.8906C294.562 53.2031 295.234 53.3594 296.016 53.3594C296.974 53.3594 297.76 53.1562 298.375 52.75C299 52.3438 299.5 51.8073 299.875 51.1406C300.25 50.474 300.542 49.75 300.75 48.9688V45.2031C300.625 44.6302 300.443 44.0781 300.203 43.5469C299.974 43.0052 299.672 42.526 299.297 42.1094C298.932 41.6823 298.479 41.3438 297.938 41.0938C297.406 40.8438 296.776 40.7188 296.047 40.7188C295.255 40.7188 294.573 40.8854 294 41.2188C293.438 41.5417 292.974 41.9896 292.609 42.5625C292.245 43.125 291.974 43.7812 291.797 44.5312C291.63 45.2708 291.547 46.0625 291.547 46.9062Z" fill="#2CA1A9"/>
</g>
</g>
<defs>
<filter id="filter0_d_877_1156" x="0" y="0" width="354.5" height="97" filterUnits="userSpaceOnUse" color-interpolation-filters="sRGB">
<feFlood flood-opacity="0" result="BackgroundImageFix"/>
<feColorMatrix in="SourceAlpha" type="matrix" values="0 0 0 0 0 0 0 0 0 0 0 0 0 0 0 0 0 0 127 0" result="hardAlpha"/>
<feOffset dy="4"/>
<feGaussianBlur stdDeviation="2"/>
<feComposite in2="hardAlpha" operator="out"/>
<feColorMatrix type="matrix" values="0 0 0 0 0 0 0 0 0 0 0 0 0 0 0 0 0 0 0.25 0"/>
<feBlend mode="normal" in2="BackgroundImageFix" result="effect1_dropShadow_877_1156"/>
<feBlend mode="normal" in="SourceGraphic" in2="effect1_dropShadow_877_1156" result="shape"/>
</filter>
<filter id="filter1_i_877_1156" x="31" y="21" width="67.5" height="51" filterUnits="userSpaceOnUse" color-interpolation-filters="sRGB">
<feFlood flood-opacity="0" result="BackgroundImageFix"/>
<feBlend mode="normal" in="SourceGraphic" in2="BackgroundImageFix" result="shape"/>
<feColorMatrix in="SourceAlpha" type="matrix" values="0 0 0 0 0 0 0 0 0 0 0 0 0 0 0 0 0 0 127 0" result="hardAlpha"/>
<feOffset dy="4"/>
<feGaussianBlur stdDeviation="2"/>
<feComposite in2="hardAlpha" operator="arithmetic" k2="-1" k3="1"/>
<feColorMatrix type="matrix" values="0 0 0 0 0 0 0 0 0 0 0 0 0 0 0 0 0 0 0.25 0"/>
<feBlend mode="normal" in2="shape" result="effect1_innerShadow_877_1156"/>
</filter>
<filter id="filter2_i_877_1156" x="123.422" y="31.1719" width="179.5" height="28.6406" filterUnits="userSpaceOnUse" color-interpolation-filters="sRGB">
<feFlood flood-opacity="0" result="BackgroundImageFix"/>
<feBlend mode="normal" in="SourceGraphic" in2="BackgroundImageFix" result="shape"/>
<feColorMatrix in="SourceAlpha" type="matrix" values="0 0 0 0 0 0 0 0 0 0 0 0 0 0 0 0 0 0 127 0" result="hardAlpha"/>
<feOffset dy="4"/>
<feGaussianBlur stdDeviation="2"/>
<feComposite in2="hardAlpha" operator="arithmetic" k2="-1" k3="1"/>
<feColorMatrix type="matrix" values="0 0 0 0 0 0 0 0 0 0 0 0 0 0 0 0 0 0 0.25 0"/>
<feBlend mode="normal" in2="shape" result="effect1_innerShadow_877_1156"/>
</filter>
</defs>
</svg>
