<svg width="303" height="97" viewBox="0 0 303 97" fill="none" xmlns="http://www.w3.org/2000/svg">
<g filter="url(#filter0_d_877_1163)">
<rect x="4" width="294.5" height="89" rx="44.5" fill="#FFAC4B" fill-opacity="0.4" shape-rendering="crispEdges"/>
<rect x="4.5" y="0.5" width="293.5" height="88" rx="44" stroke="#FFAC4B" shape-rendering="crispEdges"/>
<g filter="url(#filter1_i_877_1163)">
<path d="M96.25 63.5238H94V56.8095C94 56.2159 93.7629 55.6467 93.341 55.227C92.919 54.8072 92.3467 54.5714 91.75 54.5714H73.75C73.1533 54.5714 72.581 54.8072 72.159 55.227C71.7371 55.6467 71.5 56.2159 71.5 56.8095V63.5238H40V25.4762H89.5V47.8571C89.5 48.4507 89.7371 49.02 90.159 49.4397C90.581 49.8594 91.1533 50.0952 91.75 50.0952C92.3467 50.0952 92.919 49.8594 93.341 49.4397C93.7629 49.02 94 48.4507 94 47.8571V25.4762C94 24.289 93.5259 23.1505 92.682 22.311C91.8381 21.4716 90.6935 21 89.5 21H40C38.8065 21 37.6619 21.4716 36.818 22.311C35.9741 23.1505 35.5 24.289 35.5 25.4762V63.5238H33.25C32.6533 63.5238 32.081 63.7596 31.659 64.1793C31.2371 64.5991 31 65.1683 31 65.7619C31 66.3555 31.2371 66.9248 31.659 67.3445C32.081 67.7642 32.6533 68 33.25 68H96.25C96.8467 68 97.419 67.7642 97.841 67.3445C98.2629 66.9248 98.5 66.3555 98.5 65.7619C98.5 65.1683 98.2629 64.5991 97.841 64.1793C97.419 63.7596 96.8467 63.5238 96.25 63.5238ZM76 59.0476H89.5V63.5238H76V59.0476Z" fill="#FFAC4B"/>
<path d="M83.806 52.3062C81.7266 50.3581 81.1269 47.4371 82.1645 44.2811L82.7578 42.4764C82.8688 42.1419 82.872 41.7807 82.767 41.4399C82.6621 41.099 82.4538 40.7945 82.1694 40.566L79.7949 38.6537C79.6084 38.5024 79.4898 38.2874 79.4649 38.0554C79.44 37.8234 79.5108 37.5933 79.662 37.4152L83.8037 32.6354C84.0807 32.3234 84.2885 31.9592 84.4145 31.5646C84.5405 31.1701 84.5822 30.7533 84.5371 30.3393C84.492 29.9252 84.361 29.5224 84.152 29.155C83.9429 28.7876 83.6601 28.463 83.3206 28.2009C82.6579 27.694 81.8223 27.4524 80.9912 27.5274C80.1601 27.6025 79.3992 27.9883 78.87 28.6028C78.8682 28.6069 78.8668 28.6111 78.8659 28.6154L74.7493 33.4288C74.5966 33.6067 74.3757 33.7173 74.135 33.7363C73.8944 33.7554 73.6537 33.6813 73.4658 33.5303L71.0526 31.5488C70.7741 31.321 70.4334 31.1771 70.074 31.1355C69.7146 31.094 69.3529 31.1567 69.0351 31.3157C65.9981 32.8306 63.9663 35.0945 62.9964 38.0448C61.9978 41.062 62.2609 44.3613 63.7303 47.2463C63.7852 47.355 63.8622 47.4522 63.9566 47.532C64.051 47.6118 64.1608 47.6725 64.2794 47.7105L82.9033 53.7685C83.1003 53.8324 83.3124 53.8304 83.5052 53.7629C83.6979 53.6953 83.8598 53.5662 83.9645 53.3966C84.0692 53.2269 84.1106 53.0268 84.0818 52.8288C84.053 52.6307 83.9558 52.4465 83.806 52.3062ZM69.8922 32.8892L72.306 34.8651C72.5851 35.0916 72.9067 35.2636 73.2521 35.3712C73.5976 35.4788 73.9601 35.5199 74.3191 35.4922C74.678 35.4645 75.0261 35.3685 75.3436 35.2097C75.6611 35.0509 75.9416 34.8324 76.1691 34.5669L80.2759 29.7758C80.7645 29.2283 81.6256 29.1431 82.1968 29.5913C82.3429 29.7041 82.4645 29.8437 82.5543 30.0018C82.644 30.16 82.7001 30.3334 82.719 30.5115C82.738 30.6897 82.7194 30.8689 82.6645 31.0384C82.6096 31.2079 82.5194 31.3641 82.3995 31.4977L78.2494 36.2736C77.7913 36.8079 77.5755 37.5006 77.6492 38.1995C77.723 38.8984 78.0804 39.5465 78.643 40.0015L81.0152 41.9096L80.4222 43.7132C80.4109 43.7476 80.3996 43.7821 80.3879 43.8176L68.1831 33.9182C68.7217 33.5301 69.2933 33.186 69.8922 32.8892ZM70.7252 47.9575C69.8203 46.3424 69.4012 44.5228 69.5163 42.7089C69.5253 42.4777 69.4396 42.2503 69.2778 42.076C69.116 41.9016 68.891 41.7943 68.6515 41.7771C68.412 41.7599 68.1771 41.8342 67.9975 41.984C67.818 42.1339 67.7082 42.3472 67.6919 42.5779C67.5989 44.1403 67.8353 45.7117 68.3869 47.1969L65.2034 46.1614C64.0885 43.7666 63.923 41.0769 64.7389 38.6116C65.158 37.3011 65.8706 36.1011 66.8268 35.0955L79.9424 45.7339C79.6511 47.72 79.943 49.6045 80.7759 51.2257L70.7252 47.9575Z" fill="#FFAC4B"/>
<path d="M51.8794 40.6782H48.0752V38.2788H51.8794C52.4673 38.2788 52.9458 38.1831 53.3149 37.9917C53.6841 37.7935 53.9541 37.52 54.125 37.1714C54.2959 36.8228 54.3813 36.4297 54.3813 35.9922C54.3813 35.5479 54.2959 35.1343 54.125 34.7515C53.9541 34.3687 53.6841 34.061 53.3149 33.8286C52.9458 33.5962 52.4673 33.48 51.8794 33.48H49.1416V46H46.0654V31.0703H51.8794C53.0483 31.0703 54.0498 31.2822 54.8838 31.7061C55.7246 32.123 56.3672 32.7007 56.8115 33.439C57.2559 34.1772 57.478 35.0215 57.478 35.9717C57.478 36.9355 57.2559 37.7695 56.8115 38.4736C56.3672 39.1777 55.7246 39.7212 54.8838 40.104C54.0498 40.4868 53.0483 40.6782 51.8794 40.6782Z" fill="#FFAC4B"/>
<path d="M60.75 55.6006V58H53.2339V55.6006H60.75ZM54.2285 43.0703V58H51.1523V43.0703H54.2285Z" fill="#FFAC4B"/>
</g>
<g filter="url(#filter2_i_877_1163)">
<path d="M131.719 32.75V55.5H128.75V32.75H131.719ZM139.031 32.75V35.2188H121.453V32.75H139.031ZM139.641 47.2344V46.875C139.641 45.6562 139.818 44.526 140.172 43.4844C140.526 42.4323 141.036 41.5208 141.703 40.75C142.37 39.9688 143.177 39.3646 144.125 38.9375C145.073 38.5 146.135 38.2812 147.312 38.2812C148.5 38.2812 149.568 38.5 150.516 38.9375C151.474 39.3646 152.286 39.9688 152.953 40.75C153.63 41.5208 154.146 42.4323 154.5 43.4844C154.854 44.526 155.031 45.6562 155.031 46.875V47.2344C155.031 48.4531 154.854 49.5833 154.5 50.625C154.146 51.6667 153.63 52.5781 152.953 53.3594C152.286 54.1302 151.479 54.7344 150.531 55.1719C149.594 55.599 148.531 55.8125 147.344 55.8125C146.156 55.8125 145.089 55.599 144.141 55.1719C143.193 54.7344 142.38 54.1302 141.703 53.3594C141.036 52.5781 140.526 51.6667 140.172 50.625C139.818 49.5833 139.641 48.4531 139.641 47.2344ZM142.531 46.875V47.2344C142.531 48.0781 142.63 48.875 142.828 49.625C143.026 50.3646 143.323 51.0208 143.719 51.5938C144.125 52.1667 144.63 52.6198 145.234 52.9531C145.839 53.276 146.542 53.4375 147.344 53.4375C148.135 53.4375 148.828 53.276 149.422 52.9531C150.026 52.6198 150.526 52.1667 150.922 51.5938C151.318 51.0208 151.615 50.3646 151.812 49.625C152.021 48.875 152.125 48.0781 152.125 47.2344V46.875C152.125 46.0417 152.021 45.2552 151.812 44.5156C151.615 43.7656 151.312 43.1042 150.906 42.5312C150.51 41.9479 150.01 41.4896 149.406 41.1562C148.812 40.8229 148.115 40.6562 147.312 40.6562C146.521 40.6562 145.823 40.8229 145.219 41.1562C144.625 41.4896 144.125 41.9479 143.719 42.5312C143.323 43.1042 143.026 43.7656 142.828 44.5156C142.63 45.2552 142.531 46.0417 142.531 46.875ZM157.891 47.2344V46.875C157.891 45.6562 158.068 44.526 158.422 43.4844C158.776 42.4323 159.286 41.5208 159.953 40.75C160.62 39.9688 161.427 39.3646 162.375 38.9375C163.323 38.5 164.385 38.2812 165.562 38.2812C166.75 38.2812 167.818 38.5 168.766 38.9375C169.724 39.3646 170.536 39.9688 171.203 40.75C171.88 41.5208 172.396 42.4323 172.75 43.4844C173.104 44.526 173.281 45.6562 173.281 46.875V47.2344C173.281 48.4531 173.104 49.5833 172.75 50.625C172.396 51.6667 171.88 52.5781 171.203 53.3594C170.536 54.1302 169.729 54.7344 168.781 55.1719C167.844 55.599 166.781 55.8125 165.594 55.8125C164.406 55.8125 163.339 55.599 162.391 55.1719C161.443 54.7344 160.63 54.1302 159.953 53.3594C159.286 52.5781 158.776 51.6667 158.422 50.625C158.068 49.5833 157.891 48.4531 157.891 47.2344ZM160.781 46.875V47.2344C160.781 48.0781 160.88 48.875 161.078 49.625C161.276 50.3646 161.573 51.0208 161.969 51.5938C162.375 52.1667 162.88 52.6198 163.484 52.9531C164.089 53.276 164.792 53.4375 165.594 53.4375C166.385 53.4375 167.078 53.276 167.672 52.9531C168.276 52.6198 168.776 52.1667 169.172 51.5938C169.568 51.0208 169.865 50.3646 170.062 49.625C170.271 48.875 170.375 48.0781 170.375 47.2344V46.875C170.375 46.0417 170.271 45.2552 170.062 44.5156C169.865 43.7656 169.562 43.1042 169.156 42.5312C168.76 41.9479 168.26 41.4896 167.656 41.1562C167.062 40.8229 166.365 40.6562 165.562 40.6562C164.771 40.6562 164.073 40.8229 163.469 41.1562C162.875 41.4896 162.375 41.9479 161.969 42.5312C161.573 43.1042 161.276 43.7656 161.078 44.5156C160.88 45.2552 160.781 46.0417 160.781 46.875ZM180.047 31.5V55.5H177.141V31.5H180.047ZM193.234 44.8594H187.469L187.438 42.4375H192.672C193.536 42.4375 194.292 42.2917 194.938 42C195.583 41.7083 196.083 41.2917 196.438 40.75C196.802 40.1979 196.984 39.5417 196.984 38.7812C196.984 37.9479 196.823 37.2708 196.5 36.75C196.188 36.2188 195.703 35.8333 195.047 35.5938C194.401 35.3438 193.578 35.2188 192.578 35.2188H188.141V55.5H185.125V32.75H192.578C193.745 32.75 194.786 32.8698 195.703 33.1094C196.62 33.3385 197.396 33.7031 198.031 34.2031C198.677 34.6927 199.167 35.3177 199.5 36.0781C199.833 36.8385 200 37.75 200 38.8125C200 39.75 199.76 40.599 199.281 41.3594C198.802 42.1094 198.135 42.724 197.281 43.2031C196.438 43.6823 195.448 43.9896 194.312 44.125L193.234 44.8594ZM193.094 55.5H186.281L187.984 53.0469H193.094C194.052 53.0469 194.865 52.8802 195.531 52.5469C196.208 52.2135 196.724 51.7448 197.078 51.1406C197.432 50.526 197.609 49.8021 197.609 48.9688C197.609 48.125 197.458 47.3958 197.156 46.7812C196.854 46.1667 196.38 45.6927 195.734 45.3594C195.089 45.026 194.255 44.8594 193.234 44.8594H188.938L188.969 42.4375H194.844L195.484 43.3125C196.578 43.4062 197.505 43.7188 198.266 44.25C199.026 44.7708 199.604 45.4375 200 46.25C200.406 47.0625 200.609 47.9583 200.609 48.9375C200.609 50.3542 200.297 51.5521 199.672 52.5312C199.057 53.5 198.188 54.2396 197.062 54.75C195.938 55.25 194.615 55.5 193.094 55.5ZM214.594 52.6094V43.9062C214.594 43.2396 214.458 42.6615 214.188 42.1719C213.927 41.6719 213.531 41.2865 213 41.0156C212.469 40.7448 211.812 40.6094 211.031 40.6094C210.302 40.6094 209.661 40.7344 209.109 40.9844C208.568 41.2344 208.141 41.5625 207.828 41.9688C207.526 42.375 207.375 42.8125 207.375 43.2812H204.484C204.484 42.6771 204.641 42.0781 204.953 41.4844C205.266 40.8906 205.714 40.3542 206.297 39.875C206.891 39.3854 207.599 39 208.422 38.7188C209.255 38.4271 210.182 38.2812 211.203 38.2812C212.432 38.2812 213.516 38.4896 214.453 38.9062C215.401 39.3229 216.141 39.9531 216.672 40.7969C217.214 41.6302 217.484 42.6771 217.484 43.9375V51.8125C217.484 52.375 217.531 52.974 217.625 53.6094C217.729 54.2448 217.88 54.7917 218.078 55.25V55.5H215.062C214.917 55.1667 214.802 54.724 214.719 54.1719C214.635 53.6094 214.594 53.0885 214.594 52.6094ZM215.094 45.25L215.125 47.2812H212.203C211.38 47.2812 210.646 47.349 210 47.4844C209.354 47.6094 208.812 47.8021 208.375 48.0625C207.938 48.3229 207.604 48.651 207.375 49.0469C207.146 49.4323 207.031 49.8854 207.031 50.4062C207.031 50.9375 207.151 51.4219 207.391 51.8594C207.63 52.2969 207.99 52.6458 208.469 52.9062C208.958 53.1562 209.557 53.2812 210.266 53.2812C211.151 53.2812 211.932 53.0938 212.609 52.7188C213.286 52.3438 213.823 51.8854 214.219 51.3438C214.625 50.8021 214.844 50.276 214.875 49.7656L216.109 51.1562C216.036 51.5938 215.839 52.0781 215.516 52.6094C215.193 53.1406 214.76 53.651 214.219 54.1406C213.688 54.6198 213.052 55.0208 212.312 55.3438C211.583 55.6562 210.76 55.8125 209.844 55.8125C208.698 55.8125 207.693 55.5885 206.828 55.1406C205.974 54.6927 205.307 54.0938 204.828 53.3438C204.359 52.5833 204.125 51.7344 204.125 50.7969C204.125 49.8906 204.302 49.0938 204.656 48.4062C205.01 47.7083 205.521 47.1302 206.188 46.6719C206.854 46.2031 207.656 45.849 208.594 45.6094C209.531 45.3698 210.578 45.25 211.734 45.25H215.094ZM231.875 51.0156C231.875 50.599 231.781 50.2135 231.594 49.8594C231.417 49.4948 231.047 49.1667 230.484 48.875C229.932 48.5729 229.099 48.3125 227.984 48.0938C227.047 47.8958 226.198 47.6615 225.438 47.3906C224.688 47.1198 224.047 46.7917 223.516 46.4062C222.995 46.0208 222.594 45.5677 222.312 45.0469C222.031 44.526 221.891 43.9167 221.891 43.2188C221.891 42.5521 222.036 41.9219 222.328 41.3281C222.63 40.7344 223.052 40.2083 223.594 39.75C224.146 39.2917 224.807 38.9323 225.578 38.6719C226.349 38.4115 227.208 38.2812 228.156 38.2812C229.51 38.2812 230.667 38.5208 231.625 39C232.583 39.4792 233.318 40.1198 233.828 40.9219C234.339 41.7135 234.594 42.5938 234.594 43.5625H231.703C231.703 43.0938 231.562 42.6406 231.281 42.2031C231.01 41.7552 230.609 41.3854 230.078 41.0938C229.557 40.8021 228.917 40.6562 228.156 40.6562C227.354 40.6562 226.703 40.7812 226.203 41.0312C225.714 41.2708 225.354 41.5781 225.125 41.9531C224.906 42.3281 224.797 42.724 224.797 43.1406C224.797 43.4531 224.849 43.7344 224.953 43.9844C225.068 44.224 225.266 44.4479 225.547 44.6562C225.828 44.8542 226.224 45.0417 226.734 45.2188C227.245 45.3958 227.896 45.5729 228.688 45.75C230.073 46.0625 231.214 46.4375 232.109 46.875C233.005 47.3125 233.672 47.849 234.109 48.4844C234.547 49.1198 234.766 49.8906 234.766 50.7969C234.766 51.5365 234.609 52.2135 234.297 52.8281C233.995 53.4427 233.552 53.974 232.969 54.4219C232.396 54.8594 231.708 55.2031 230.906 55.4531C230.115 55.6927 229.224 55.8125 228.234 55.8125C226.745 55.8125 225.484 55.5469 224.453 55.0156C223.422 54.4844 222.641 53.7969 222.109 52.9531C221.578 52.1094 221.312 51.2188 221.312 50.2812H224.219C224.26 51.0729 224.49 51.7031 224.906 52.1719C225.323 52.6302 225.833 52.9583 226.438 53.1562C227.042 53.3438 227.641 53.4375 228.234 53.4375C229.026 53.4375 229.688 53.3333 230.219 53.125C230.76 52.9167 231.172 52.6302 231.453 52.2656C231.734 51.901 231.875 51.4844 231.875 51.0156ZM245.578 55.8125C244.401 55.8125 243.333 55.6146 242.375 55.2188C241.427 54.8125 240.609 54.2448 239.922 53.5156C239.245 52.7865 238.724 51.9219 238.359 50.9219C237.995 49.9219 237.812 48.8281 237.812 47.6406V46.9844C237.812 45.6094 238.016 44.3854 238.422 43.3125C238.828 42.2292 239.38 41.3125 240.078 40.5625C240.776 39.8125 241.568 39.2448 242.453 38.8594C243.339 38.474 244.255 38.2812 245.203 38.2812C246.411 38.2812 247.453 38.4896 248.328 38.9062C249.214 39.3229 249.938 39.9062 250.5 40.6562C251.062 41.3958 251.479 42.2708 251.75 43.2812C252.021 44.2812 252.156 45.375 252.156 46.5625V47.8594H239.531V45.5H249.266V45.2812C249.224 44.5312 249.068 43.8021 248.797 43.0938C248.536 42.3854 248.12 41.8021 247.547 41.3438C246.974 40.8854 246.193 40.6562 245.203 40.6562C244.547 40.6562 243.943 40.7969 243.391 41.0781C242.839 41.349 242.365 41.7552 241.969 42.2969C241.573 42.8385 241.266 43.5 241.047 44.2812C240.828 45.0625 240.719 45.9635 240.719 46.9844V47.6406C240.719 48.4427 240.828 49.1979 241.047 49.9062C241.276 50.6042 241.604 51.2188 242.031 51.75C242.469 52.2812 242.995 52.6979 243.609 53C244.234 53.3021 244.943 53.4531 245.734 53.4531C246.755 53.4531 247.62 53.2448 248.328 52.8281C249.036 52.4115 249.656 51.8542 250.188 51.1562L251.938 52.5469C251.573 53.099 251.109 53.625 250.547 54.125C249.984 54.625 249.292 55.0312 248.469 55.3438C247.656 55.6562 246.693 55.8125 245.578 55.8125Z" fill="#FFAC4B"/>
</g>
</g>
<defs>
<filter id="filter0_d_877_1163" x="0" y="0" width="302.5" height="97" filterUnits="userSpaceOnUse" color-interpolation-filters="sRGB">
<feFlood flood-opacity="0" result="BackgroundImageFix"/>
<feColorMatrix in="SourceAlpha" type="matrix" values="0 0 0 0 0 0 0 0 0 0 0 0 0 0 0 0 0 0 127 0" result="hardAlpha"/>
<feOffset dy="4"/>
<feGaussianBlur stdDeviation="2"/>
<feComposite in2="hardAlpha" operator="out"/>
<feColorMatrix type="matrix" values="0 0 0 0 0 0 0 0 0 0 0 0 0 0 0 0 0 0 0.25 0"/>
<feBlend mode="normal" in2="BackgroundImageFix" result="effect1_dropShadow_877_1163"/>
<feBlend mode="normal" in="SourceGraphic" in2="effect1_dropShadow_877_1163" result="shape"/>
</filter>
<filter id="filter1_i_877_1163" x="31" y="21" width="67.5" height="51" filterUnits="userSpaceOnUse" color-interpolation-filters="sRGB">
<feFlood flood-opacity="0" result="BackgroundImageFix"/>
<feBlend mode="normal" in="SourceGraphic" in2="BackgroundImageFix" result="shape"/>
<feColorMatrix in="SourceAlpha" type="matrix" values="0 0 0 0 0 0 0 0 0 0 0 0 0 0 0 0 0 0 127 0" result="hardAlpha"/>
<feOffset dy="4"/>
<feGaussianBlur stdDeviation="2"/>
<feComposite in2="hardAlpha" operator="arithmetic" k2="-1" k3="1"/>
<feColorMatrix type="matrix" values="0 0 0 0 0 0 0 0 0 0 0 0 0 0 0 0 0 0 0.25 0"/>
<feBlend mode="normal" in2="shape" result="effect1_innerShadow_877_1163"/>
</filter>
<filter id="filter2_i_877_1163" x="121.453" y="31.5" width="130.703" height="28.3125" filterUnits="userSpaceOnUse" color-interpolation-filters="sRGB">
<feFlood flood-opacity="0" result="BackgroundImageFix"/>
<feBlend mode="normal" in="SourceGraphic" in2="BackgroundImageFix" result="shape"/>
<feColorMatrix in="SourceAlpha" type="matrix" values="0 0 0 0 0 0 0 0 0 0 0 0 0 0 0 0 0 0 127 0" result="hardAlpha"/>
<feOffset dy="4"/>
<feGaussianBlur stdDeviation="2"/>
<feComposite in2="hardAlpha" operator="arithmetic" k2="-1" k3="1"/>
<feColorMatrix type="matrix" values="0 0 0 0 0 0 0 0 0 0 0 0 0 0 0 0 0 0 0.25 0"/>
<feBlend mode="normal" in2="shape" result="effect1_innerShadow_877_1163"/>
</filter>
</defs>
</svg>
